<svg width="44" height="45" viewBox="0 0 44 45" fill="none" xmlns="http://www.w3.org/2000/svg">
<path d="M28.8364 7.27013C31.4654 4.63013 35.3118 4.57513 37.4403 6.7128C39.5743 8.85413 39.5174 12.7261 36.8848 15.3661L32.4426 19.8266C32.1925 20.0863 32.0543 20.4338 32.058 20.7944C32.0616 21.1549 32.2067 21.4996 32.462 21.7542C32.7173 22.0087 33.0624 22.1529 33.4229 22.1555C33.7835 22.1581 34.1306 22.019 34.3896 21.7681L38.8336 17.3076C42.3371 13.7895 42.7771 8.17396 39.3891 4.7713C35.9974 1.3668 30.3929 1.81046 26.8858 5.32863L18.0014 14.2515C14.4979 17.7696 14.0579 23.3851 17.4459 26.786C17.5725 26.9176 17.7239 27.0226 17.8915 27.0951C18.0591 27.1675 18.2394 27.2058 18.422 27.2078C18.6045 27.2098 18.7856 27.1755 18.9548 27.1067C19.1239 27.038 19.2776 26.9363 19.407 26.8075C19.5364 26.6787 19.6389 26.5254 19.7084 26.3566C19.7779 26.1878 19.8132 26.0069 19.812 25.8243C19.8109 25.6418 19.7734 25.4613 19.7017 25.2933C19.6301 25.1254 19.5258 24.9735 19.3948 24.8463C17.2608 22.705 17.3194 18.833 19.9503 16.193L28.8364 7.27013Z" fill="#008F5F"/>
<path d="M26.5558 17.5118C26.2981 17.2534 25.9483 17.1079 25.5833 17.1074C25.2183 17.1069 24.8681 17.2514 24.6097 17.5091C24.3513 17.7668 24.2058 18.1166 24.2053 18.4816C24.2048 18.8465 24.3492 19.1967 24.6069 19.4552C26.7409 21.5965 26.6841 25.4667 24.0514 28.1085L15.1653 37.0295C12.5344 39.6695 8.68811 39.7245 6.55961 37.5868C4.42561 35.4455 4.48428 31.5735 7.11511 28.9335L11.5591 24.473C11.6866 24.3451 11.7876 24.1932 11.8564 24.0262C11.9252 23.8592 11.9605 23.6803 11.9601 23.4997C11.9598 23.319 11.9239 23.1403 11.8544 22.9735C11.785 22.8068 11.6834 22.6553 11.5554 22.5278C11.4275 22.4004 11.2757 22.2993 11.1087 22.2305C10.9417 22.1617 10.7627 22.1265 10.5821 22.1268C10.4015 22.1272 10.2227 22.1631 10.0559 22.2325C9.8892 22.3019 9.73776 22.4036 9.61028 22.5315L5.16628 26.992C1.66278 30.512 1.22278 36.1257 4.61078 39.5283C8.00245 42.9347 13.6069 42.4892 17.1141 38.971L26.0003 30.0482C29.5038 26.5318 29.9438 20.9127 26.5558 17.5118Z" fill="#008F5F"/>
</svg>
