<svg width="44" height="45" viewBox="0 0 44 45" fill="none" xmlns="http://www.w3.org/2000/svg">
<path fill-rule="evenodd" clip-rule="evenodd" d="M6.2859 2.64844C3.92018 2.64844 2.00018 4.56844 2.00018 6.93415V38.3627C2.00018 40.7284 3.92018 42.6484 6.2859 42.6484H26.2859C28.6516 42.6484 30.5716 40.7284 30.5716 38.3627V31.2199C30.5716 30.4313 29.9316 29.7913 29.143 29.7913C28.3545 29.7913 27.7145 30.4313 27.7145 31.2199V34.077H4.85733V6.93415C4.85733 6.14558 5.49733 5.50558 6.2859 5.50558H26.2859C27.0745 5.50558 27.7145 6.14558 27.7145 6.93415V8.36272C27.7145 9.15129 28.3545 9.7913 29.143 9.7913C29.9316 9.7913 30.5716 9.15129 30.5716 8.36272V6.93415C30.5716 4.56844 28.6516 2.64844 26.2859 2.64844H6.2859ZM18.4288 11.2199C15.6688 11.2199 13.4288 13.4599 13.4288 16.2199V23.3627C13.4288 26.1227 15.6688 28.3627 18.4288 28.3627H37.0002C39.7602 28.3627 42.0002 26.1227 42.0002 23.3627V16.2199C42.0002 13.4599 39.7602 11.2199 37.0002 11.2199H18.4288ZM19.143 16.9342C19.5088 16.9342 19.8745 17.0742 20.153 17.3527L20.5716 17.7713L20.9902 17.3527C21.5473 16.7942 22.453 16.7942 23.0102 17.3527C23.5688 17.9099 23.5688 18.8156 23.0102 19.3727L22.5916 19.7913L23.0102 20.2099C23.5688 20.767 23.5688 21.6727 23.0102 22.2299C22.453 22.7884 21.5473 22.7884 20.9902 22.2299L20.5716 21.8113L20.153 22.2299C19.5959 22.7884 18.6902 22.7884 18.133 22.2299C17.5745 21.6727 17.5745 20.767 18.133 20.2099L18.5516 19.7913L18.133 19.3727C17.5745 18.8156 17.5745 17.9099 18.133 17.3527C18.4116 17.0742 18.7773 16.9342 19.143 16.9342ZM26.2859 16.9342C26.6516 16.9342 27.0173 17.0742 27.2959 17.3527L27.7145 17.7713L28.133 17.3527C28.6902 16.7942 29.5959 16.7942 30.153 17.3527C30.7116 17.9099 30.7116 18.8156 30.153 19.3727L29.7345 19.7913L30.153 20.2099C30.7116 20.767 30.7116 21.6727 30.153 22.2299C29.5959 22.7884 28.6902 22.7884 28.133 22.2299L27.7145 21.8113L27.2959 22.2299C26.7388 22.7884 25.833 22.7884 25.2759 22.2299C24.7173 21.6727 24.7173 20.767 25.2759 20.2099L25.6945 19.7913L25.2759 19.3727C24.7173 18.8156 24.7173 17.9099 25.2759 17.3527C25.5545 17.0742 25.9202 16.9342 26.2859 16.9342ZM33.4288 16.9342C33.7945 16.9342 34.1602 17.0742 34.4388 17.3527L34.8573 17.7713L35.2759 17.3527C35.833 16.7942 36.7388 16.7942 37.2959 17.3527C37.8545 17.9099 37.8545 18.8156 37.2959 19.3727L36.8773 19.7913L37.2959 20.2099C37.8545 20.767 37.8545 21.6727 37.2959 22.2299C36.7388 22.7884 35.833 22.7884 35.2759 22.2299L34.8573 21.8113L34.4388 22.2299C33.8816 22.7884 32.9759 22.7884 32.4188 22.2299C31.8602 21.6727 31.8602 20.767 32.4188 20.2099L32.8373 19.7913L32.4188 19.3727C31.8602 18.8156 31.8602 17.9099 32.4188 17.3527C32.6973 17.0742 33.063 16.9342 33.4288 16.9342ZM4.85733 36.9342H27.7145V38.3627C27.7145 39.1513 27.0745 39.7913 26.2859 39.7913H6.2859C5.49733 39.7913 4.85733 39.1513 4.85733 38.3627V36.9342Z" fill="#008F5F"/>
</svg>
