<svg width="44" height="45" viewBox="0 0 44 45" fill="none" xmlns="http://www.w3.org/2000/svg">
<path d="M3.66681 31.8831C3.66681 29.4814 3.66681 28.2824 4.20764 27.4006C4.5099 26.9075 4.92452 26.4928 5.41764 26.1906C6.29764 25.6497 7.50031 25.6497 9.90014 25.6497H11.9168C15.3745 25.6497 17.1015 25.6497 18.1758 26.7241C19.2501 27.7984 19.2501 29.5254 19.2501 32.9831V34.9997C19.2501 37.4014 19.2501 38.6004 18.7093 39.4822C18.4071 39.9754 17.9924 40.39 17.4993 40.6922C16.6193 41.2331 15.4166 41.2331 13.0168 41.2331C9.41614 41.2331 7.61581 41.2331 6.29398 40.4227C5.55429 39.9694 4.93236 39.3474 4.47898 38.6077C3.66681 37.2822 3.66681 35.4837 3.66681 31.8831ZM24.7501 10.7997C24.7501 8.39807 24.7501 7.19907 25.291 6.31724C25.5932 5.82412 26.0079 5.40949 26.501 5.10724C27.381 4.56641 28.5836 4.56641 30.9835 4.56641C34.5841 4.56641 36.3845 4.56641 37.7081 5.37674C38.4478 5.83012 39.0698 6.45206 39.5231 7.19174C40.3335 8.51724 40.3335 10.3176 40.3335 13.9164C40.3335 16.3181 40.3335 17.5171 39.7926 18.3989C39.4904 18.892 39.0758 19.3067 38.5826 19.6089C37.7026 20.1497 36.5 20.1497 34.1001 20.1497H32.0835C28.6258 20.1497 26.8988 20.1497 25.8245 19.0754C24.7501 18.0011 24.7501 16.2741 24.7501 12.8164V10.7997Z" stroke="#008F5F" stroke-width="2.75"/>
<path d="M30.2501 12.3581C30.2501 11.4139 30.2501 10.9409 30.4885 10.6072C30.5715 10.4895 30.6738 10.3867 30.791 10.3029C31.1246 10.0664 31.5976 10.0664 32.5418 10.0664C33.486 10.0664 33.959 10.0664 34.2926 10.3047C34.4103 10.3878 34.5132 10.49 34.597 10.6072C34.8335 10.9409 34.8335 11.4139 34.8335 12.3581C34.8335 13.3022 34.8335 13.7752 34.5951 14.1089C34.5121 14.2266 34.4098 14.3295 34.2926 14.4132C33.959 14.6497 33.486 14.6497 32.5418 14.6497C31.5976 14.6497 31.1246 14.6497 30.791 14.4114C30.6733 14.3284 30.5704 14.2261 30.4866 14.1089C30.2501 13.7752 30.2501 13.3022 30.2501 12.3581ZM23.3751 41.2331C23.3751 41.5977 23.52 41.9475 23.7779 42.2053C24.0357 42.4632 24.3855 42.6081 24.7501 42.6081C25.1148 42.6081 25.4645 42.4632 25.7224 42.2053C25.9803 41.9475 26.1251 41.5977 26.1251 41.2331H23.3751ZM34.8335 24.2747H31.1668V27.0247H34.8335V24.2747ZM23.3751 35.7331V41.2331H26.1251V35.7331H23.3751ZM31.1668 24.2747C29.9073 24.2747 28.8605 24.2747 28.0153 24.3591C27.1463 24.4471 26.3415 24.6396 25.6155 25.1254L27.1445 27.4116C27.3425 27.2777 27.6431 27.1604 28.294 27.0944C28.9668 27.0266 29.8523 27.0247 31.1668 27.0247V24.2747ZM26.1251 32.0664C26.1251 30.7501 26.1251 29.8664 26.1948 29.1936C26.2608 28.5427 26.3781 28.2421 26.512 28.0441L24.2258 26.5151C23.7418 27.2411 23.5475 28.0459 23.4595 28.9149C23.3733 29.7601 23.3751 30.8069 23.3751 32.0664H26.1251ZM25.6155 25.1254C25.0655 25.4921 24.5925 25.9651 24.2258 26.5151L26.512 28.0441C26.681 27.7952 26.8956 27.5806 27.1445 27.4116L25.6155 25.1254ZM41.7085 25.6497C41.7085 25.2851 41.5636 24.9353 41.3057 24.6775C41.0479 24.4196 40.6981 24.2747 40.3335 24.2747C39.9688 24.2747 39.619 24.4196 39.3612 24.6775C39.1033 24.9353 38.9585 25.2851 38.9585 25.6497H41.7085ZM31.1668 42.6081H34.8335V39.8581H31.1668V42.6081ZM41.7085 32.0664V25.6497H38.9585V32.0664H41.7085ZM34.8335 42.6081C35.6695 42.6081 36.3643 42.6081 36.9326 42.5714C37.5138 42.5311 38.0638 42.4467 38.5955 42.2249L37.5431 39.6839C37.402 39.7426 37.1875 39.7957 36.7456 39.8269C36.2928 39.8581 35.7061 39.8581 34.8335 39.8581V42.6081ZM38.9585 35.7331C38.9585 36.6057 38.9585 37.1924 38.9273 37.6452C38.8961 38.0871 38.843 38.3016 38.7843 38.4427L41.3253 39.4951C41.5453 38.9634 41.6315 38.4134 41.67 37.8322C41.7085 37.2639 41.7085 36.5672 41.7085 35.7331H38.9585ZM38.5955 42.2249C39.2073 41.9717 39.7633 41.5987 40.2317 41.1306C40.7001 40.6625 41.0717 40.1068 41.3253 39.4951L38.7843 38.4427C38.6691 38.721 38.5002 38.9739 38.2872 39.1869C38.0743 39.3998 37.8214 39.5687 37.5431 39.6839L38.5955 42.2249Z" fill="#008F5F"/>
<path d="M3.66681 13.9164C3.66681 10.3157 3.66681 8.51541 4.47714 7.19357C4.93052 6.45389 5.55246 5.83196 6.29214 5.37857C7.61764 4.56641 9.41798 4.56641 13.0168 4.56641C15.4185 4.56641 16.6175 4.56641 17.4993 5.10724C17.9924 5.40949 18.4071 5.82412 18.7093 6.31724C19.2501 7.19724 19.2501 8.39991 19.2501 10.7997V12.8164C19.2501 16.2741 19.2501 18.0011 18.1758 19.0754C17.1015 20.1497 15.3745 20.1497 11.9168 20.1497H9.90014C7.49848 20.1497 6.29948 20.1497 5.41764 19.6089C4.92452 19.3067 4.5099 18.892 4.20764 18.3989C3.66681 17.5189 3.66681 16.3162 3.66681 13.9164Z" stroke="#008F5F" stroke-width="2.75"/>
<path d="M9.16681 12.3581C9.16681 11.4139 9.16681 10.9409 9.40514 10.6072C9.48818 10.4895 9.59044 10.3867 9.70764 10.3029C10.0413 10.0664 10.5143 10.0664 11.4585 10.0664C12.4026 10.0664 12.8756 10.0664 13.2093 10.3047C13.327 10.3878 13.4299 10.49 13.5136 10.6072C13.7501 10.9409 13.7501 11.4139 13.7501 12.3581C13.7501 13.3022 13.7501 13.7752 13.5118 14.1089C13.4288 14.2266 13.3265 14.3295 13.2093 14.4132C12.8756 14.6497 12.4026 14.6497 11.4585 14.6497C10.5143 14.6497 10.0413 14.6497 9.70764 14.4114C9.58994 14.3284 9.48706 14.2261 9.40331 14.1089C9.16681 13.7752 9.16681 13.3022 9.16681 12.3581ZM9.16681 33.4414C9.16681 32.4972 9.16681 32.0242 9.40514 31.6906C9.48818 31.5729 9.59044 31.47 9.70764 31.3862C10.0413 31.1497 10.5143 31.1497 11.4585 31.1497C12.4026 31.1497 12.8756 31.1497 13.2093 31.3881C13.327 31.4711 13.4299 31.5734 13.5136 31.6906C13.7501 32.0242 13.7501 32.4972 13.7501 33.4414C13.7501 34.3856 13.7501 34.8586 13.5118 35.1922C13.4288 35.3099 13.3265 35.4128 13.2093 35.4966C12.8756 35.7331 12.4026 35.7331 11.4585 35.7331C10.5143 35.7331 10.0413 35.7331 9.70764 35.4947C9.58994 35.4117 9.48706 35.3094 9.40331 35.1922C9.16681 34.8586 9.16681 34.3856 9.16681 33.4414ZM29.3335 33.4414C29.3335 32.1544 29.3335 31.5109 29.6433 31.0471C29.7768 30.8476 29.948 30.6763 30.1475 30.5429C30.6113 30.2331 31.2548 30.2331 32.5418 30.2331C33.8288 30.2331 34.4723 30.2331 34.9361 30.5429C35.1356 30.6763 35.3069 30.8476 35.4403 31.0471C35.7501 31.5109 35.7501 32.1544 35.7501 33.4414C35.7501 34.7284 35.7501 35.3719 35.4403 35.8357C35.3069 36.0352 35.1356 36.2065 34.9361 36.3399C34.4723 36.6497 33.8288 36.6497 32.5418 36.6497C31.2548 36.6497 30.6113 36.6497 30.1475 36.3399C29.948 36.2065 29.7768 36.0352 29.6433 35.8357C29.3335 35.3719 29.3335 34.7284 29.3335 33.4414Z" fill="#008F5F"/>
</svg>
