<svg width="44" height="45" viewBox="0 0 44 45" fill="none" xmlns="http://www.w3.org/2000/svg">
<g clip-path="url(#clip0_9_37888)">
<path fill-rule="evenodd" clip-rule="evenodd" d="M1.37183 12.0864C1.37183 8.66917 4.14207 5.89893 7.55933 5.89893H32.3093C35.7267 5.89893 38.4968 8.66917 38.4968 12.0864V20.5963C37.8376 20.4268 37.1465 20.3364 36.4343 20.3364H34.3718V12.0864C34.3718 10.9473 33.4484 10.0239 32.3093 10.0239H7.55933C6.42025 10.0239 5.49683 10.9473 5.49683 12.0864V26.5239C5.49683 26.7626 5.53737 26.9919 5.61195 27.2052C5.53624 27.6542 5.49683 28.1158 5.49683 28.5864V32.3594C3.09362 31.51 1.37183 29.218 1.37183 26.5239V12.0864ZM7.56274 14.1489C7.56274 13.0098 8.48617 12.0864 9.62524 12.0864H13.7502C14.8893 12.0864 15.8127 13.0098 15.8127 14.1489C15.8127 15.288 14.8893 16.2114 13.7502 16.2114H9.62524C8.48617 16.2114 7.56274 15.288 7.56274 14.1489ZM7.56274 28.5864C7.56274 25.1691 10.333 22.3989 13.7502 22.3989H36.4377C39.8551 22.3989 42.6252 25.1691 42.6252 28.5864V32.7114C42.6252 36.1288 39.8551 38.8989 36.4377 38.8989H13.7502C10.333 38.8989 7.56274 36.1288 7.56274 32.7114V28.5864ZM13.7502 30.6489C13.7502 29.5098 14.6737 28.5864 15.8127 28.5864H17.8752C19.0144 28.5864 19.9377 29.5098 19.9377 30.6489C19.9377 31.788 19.0144 32.7114 17.8752 32.7114H15.8127C14.6737 32.7114 13.7502 31.788 13.7502 30.6489ZM26.1252 32.7114H24.0627C22.9236 32.7114 22.0002 31.788 22.0002 30.6489C22.0002 29.5098 22.9236 28.5864 24.0627 28.5864H26.1252C27.2644 28.5864 28.1877 29.5098 28.1877 30.6489C28.1877 31.788 27.2644 32.7114 26.1252 32.7114ZM34.3752 32.7114H32.3127C31.1736 32.7114 30.2502 31.788 30.2502 30.6489C30.2502 29.5098 31.1736 28.5864 32.3127 28.5864H34.3752C35.5144 28.5864 36.4377 29.5098 36.4377 30.6489C36.4377 31.788 35.5144 32.7114 34.3752 32.7114Z" fill="#008F5F"/>
</g>
<defs>
<clipPath id="clip0_9_37888">
<rect width="44" height="44" fill="white" transform="translate(0 0.398926)"/>
</clipPath>
</defs>
</svg>
