<svg width="44" height="45" viewBox="0 0 44 45" fill="none" xmlns="http://www.w3.org/2000/svg">
<g clip-path="url(#clip0_9_37914)">
<path d="M10.1379 24.8096H8.45888C7.60885 24.8096 6.9248 25.5005 6.9248 26.3436V28.0225C6.9248 28.8723 7.60885 29.5565 8.45888 29.5565H10.1379C10.9808 29.5565 11.6718 28.8723 11.6718 28.0225V26.3436C11.6718 25.5005 10.9808 24.8096 10.1379 24.8096ZM10.2899 28.0225C10.2899 28.1055 10.2207 28.1746 10.1379 28.1746H8.45888C8.37589 28.1746 8.30672 28.1055 8.30672 28.0225V26.3436C8.30672 26.2607 8.37589 26.1915 8.45888 26.1915H10.1379C10.2207 26.1915 10.2899 26.2607 10.2899 26.3436V28.0225Z" fill="#008F5F"/>
<path d="M16.5223 19.3242H14.8431C14.0002 19.3242 13.3092 20.0152 13.3092 20.858V22.5371C13.3092 23.387 14.0002 24.0712 14.8431 24.0712H16.5223C17.3721 24.0712 18.0562 23.387 18.0562 22.5371V20.858C18.0562 20.0152 17.3721 19.3242 16.5223 19.3242ZM16.6743 22.5371C16.6743 22.6201 16.6051 22.6893 16.5223 22.6893H14.8431C14.7603 22.6893 14.6911 22.6201 14.6911 22.5371V20.858C14.6911 20.7753 14.7603 20.7061 14.8431 20.7061H16.5223C16.6051 20.7061 16.6743 20.7753 16.6743 20.858V22.5371Z" fill="#008F5F"/>
<path d="M16.5223 30.293H14.8431C14.0002 30.293 13.3092 30.9839 13.3092 31.827V33.5059C13.3092 34.3557 14.0002 35.0399 14.8431 35.0399H16.5223C17.3721 35.0399 18.0562 34.3557 18.0562 33.5059V31.827C18.0562 30.9839 17.3721 30.293 16.5223 30.293ZM16.6743 33.5059C16.6743 33.5889 16.6051 33.658 16.5223 33.658H14.8431C14.7603 33.658 14.6911 33.5889 14.6911 33.5059V31.827C14.6911 31.744 14.7603 31.6749 14.8431 31.6749H16.5223C16.6051 31.6749 16.6743 31.744 16.6743 31.827V33.5059Z" fill="#008F5F"/>
<path d="M22.9136 24.8096H21.2345C20.3846 24.8096 19.7006 25.5005 19.7006 26.3436V28.0225C19.7006 28.8723 20.3846 29.5565 21.2345 29.5565H22.9136C23.7566 29.5565 24.4475 28.8723 24.4475 28.0225V26.3436C24.4475 25.5005 23.7566 24.8096 22.9136 24.8096ZM23.0656 28.0225C23.0656 28.1055 22.9964 28.1746 22.9136 28.1746H21.2345C21.1447 28.1746 21.0825 28.1055 21.0825 28.0225V26.3436C21.0825 26.2607 21.1447 26.1915 21.2345 26.1915H22.9136C22.9964 26.1915 23.0656 26.2607 23.0656 26.3436V28.0225Z" fill="#008F5F"/>
<path d="M14.6308 29.2532H16.7376C17.299 29.2532 17.7525 28.7947 17.7525 28.2383V26.1266C17.7525 25.5703 17.299 25.1172 16.7376 25.1172H14.6308C14.0694 25.1172 13.6161 25.5703 13.6161 26.1266V28.2383C13.6161 28.7947 14.0694 29.2532 14.6308 29.2532Z" fill="#008F5F"/>
<path d="M10.3513 30.6035H8.2447C7.6833 30.6035 7.22986 31.057 7.22986 31.6133V33.7253C7.22986 34.2813 7.6833 34.7398 8.2447 34.7398H10.3513C10.9129 34.7398 11.3662 34.2813 11.3662 33.7253V31.6133C11.3662 31.057 10.9129 30.6035 10.3513 30.6035Z" fill="#008F5F"/>
<path d="M23.1258 30.6035H21.019C20.4576 30.6035 20.0043 31.057 20.0043 31.6133V33.7253C20.0043 34.2813 20.4576 34.7398 21.019 34.7398H23.1258C23.6872 34.7398 24.1405 34.2813 24.1405 33.7253V31.6133C24.1405 31.057 23.6872 30.6035 23.1258 30.6035Z" fill="#008F5F"/>
<path d="M21.019 23.7703H23.1258C23.6872 23.7703 24.1405 23.3118 24.1405 22.7554V20.6434C24.1405 20.0871 23.6872 19.6289 23.1258 19.6289H21.019C20.4576 19.6289 20.0043 20.0871 20.0043 20.6434V22.7554C20.0043 23.3118 20.4576 23.7703 21.019 23.7703Z" fill="#008F5F"/>
<path d="M8.2447 23.7703H10.3513C10.9129 23.7703 11.3662 23.3118 11.3662 22.7554V20.6434C11.3662 20.0871 10.9129 19.6289 10.3513 19.6289H8.2447C7.6833 19.6289 7.22986 20.0871 7.22986 20.6434V22.7554C7.22986 23.3118 7.6833 23.7703 8.2447 23.7703Z" fill="#008F5F"/>
<path d="M1.02425 40.1974C1.02425 42.7055 3.06271 44.7369 5.57081 44.7369H25.8021C28.3104 44.7369 30.3418 42.7055 30.3418 40.1974C30.3689 37.76 30.36 25.9797 30.3623 19.8209L32 18.6465H39.794C41.5629 18.6465 43 17.2092 43 15.4403V8.37891C43 6.61002 41.5629 5.17277 39.794 5.17277H30.1552C29.6093 3.27938 27.8681 1.89746 25.8021 1.89746H5.57081C3.06271 1.89746 1.02425 3.93592 1.02425 6.44402C1.02419 6.54344 0.969719 36.2944 1.02425 40.1974ZM15.6865 42.526C14.9403 42.526 14.346 41.9248 14.346 41.1853C14.346 40.4461 14.9403 39.8452 15.6865 39.8452C16.4258 39.8452 17.027 40.4461 17.027 41.1853C17.027 41.9248 16.4258 42.526 15.6865 42.526ZM23.7776 8.37891C23.7776 7.37014 24.5998 6.55469 25.6086 6.55469C27.2659 6.55469 38.4093 6.55469 39.794 6.55469C40.7959 6.55469 41.6181 7.37014 41.6181 8.37891V15.4403C41.6181 16.4423 40.7959 17.2645 39.794 17.2645H31.779C31.6338 17.2645 31.4956 17.306 31.3782 17.3958L26.4723 20.9336V17.9555C26.4723 17.5753 26.1683 17.2645 25.7814 17.2645H25.6086C24.5998 17.2645 23.7776 16.4423 23.7776 15.4403V8.37891ZM14.1596 3.998H17.2135C17.5934 3.998 17.9045 4.30907 17.9045 4.68896C17.9045 5.06919 17.5934 5.37992 17.2135 5.37992H14.1596C13.7793 5.37992 13.4686 5.06919 13.4686 4.68896C13.4686 4.30907 13.7793 3.998 14.1596 3.998ZM2.38559 7.58404H22.4993C22.4301 7.83977 22.3957 8.10226 22.3957 8.37891V10.4518H7.57453C6.63492 10.4518 5.88171 11.2048 5.88171 12.1444V16.7187C5.88171 17.6515 6.63492 18.4113 7.57453 18.4113H23.7915C23.9504 18.4113 24.1025 18.382 24.2502 18.3401C24.2517 18.3408 24.2528 18.3418 24.2544 18.3425C24.5169 18.4666 24.7933 18.5564 25.0904 18.605V20.9336C25.0904 21.4518 25.3805 21.9214 25.8436 22.1566C26.277 22.3807 26.8233 22.3677 27.2739 22.0459L28.9804 20.8162V36.936H2.38559V7.58404Z" fill="#008F5F"/>
<path d="M25.3184 12.9941C25.479 13.2406 25.7732 13.2884 25.9748 13.1878C25.9955 13.1807 26.037 13.1601 27.0458 12.3376C26.8454 13.623 26.8454 13.6645 26.8454 13.6851C26.8454 13.9397 27.074 14.1689 27.3429 14.1689C27.5887 14.1689 27.8403 13.9749 27.8403 13.6851C27.8403 13.6645 27.8403 13.623 27.6399 12.3376C28.6558 13.1601 28.6971 13.1807 28.7179 13.1878C28.8863 13.2809 29.1856 13.2633 29.3812 12.9874C29.4996 12.7314 29.4551 12.4651 29.2015 12.317L27.9372 11.8265L29.2084 11.3288C29.4512 11.1706 29.5054 10.8881 29.3743 10.645C29.1647 10.3308 28.8155 10.3683 28.7179 10.4651C28.6971 10.4722 28.6558 10.4928 27.6399 11.3153C27.8403 10.0299 27.8403 9.98841 27.8403 9.96783C27.8403 9.68506 27.6068 9.48242 27.3463 9.48242C27.0733 9.48242 26.8454 9.70581 26.8454 9.96783C26.8454 9.98841 26.8454 10.0299 27.0458 11.3153C26.037 10.4928 25.9955 10.4722 25.9817 10.4651C25.6968 10.3238 25.4616 10.42 25.3115 10.645C25.1965 10.875 25.2244 11.1801 25.4912 11.3359L26.7557 11.8265L25.4842 12.3241C25.2158 12.4582 25.2004 12.7919 25.3184 12.9941Z" fill="#008F5F"/>
<path d="M30.819 12.9941C30.9796 13.2406 31.2737 13.2884 31.4753 13.1878C31.4961 13.1807 31.5376 13.1601 32.5464 12.3376C32.346 13.623 32.346 13.6645 32.346 13.6851C32.346 13.9397 32.5745 14.1689 32.8434 14.1689C33.0893 14.1689 33.3409 13.9749 33.3409 13.6851C33.3409 13.6645 33.3409 13.623 33.1405 12.3376C34.1563 13.1601 34.1977 13.1807 34.2184 13.1878C34.3868 13.2809 34.6862 13.2633 34.8817 12.9874C35.0001 12.7314 34.9556 12.4651 34.7021 12.317L33.4377 11.8265L34.709 11.3288C34.9518 11.1706 35.006 10.8881 34.8748 10.645C34.6653 10.3308 34.3161 10.3683 34.2184 10.4651C34.1977 10.4722 34.1563 10.4928 33.1405 11.3153C33.3409 10.0299 33.3409 9.98841 33.3409 9.96783C33.3409 9.68506 33.1074 9.48242 32.8469 9.48242C32.5738 9.48242 32.346 9.70581 32.346 9.96783C32.346 9.98841 32.346 10.0299 32.5464 11.3153C31.5376 10.4928 31.4961 10.4722 31.4823 10.4651C31.1973 10.3238 30.9621 10.42 30.812 10.645C30.697 10.875 30.7249 11.1801 30.9917 11.3359L32.2562 11.8265L30.9848 12.3241C30.7164 12.4582 30.701 12.7919 30.819 12.9941Z" fill="#008F5F"/>
<path d="M36.3202 12.9941C36.4808 13.2406 36.775 13.2884 36.9766 13.1878C36.9973 13.1807 37.0388 13.1601 38.0476 12.3376C37.8472 13.623 37.8472 13.6645 37.8472 13.6851C37.8472 13.9397 38.0757 14.1689 38.3446 14.1689C38.5905 14.1689 38.8421 13.9749 38.8421 13.6851C38.8421 13.6645 38.8421 13.623 38.6417 12.3376C39.6576 13.1601 39.6989 13.1807 39.7196 13.1878C39.888 13.2809 40.1874 13.2633 40.3829 12.9874C40.5013 12.7314 40.4568 12.4651 40.2033 12.317L38.9389 11.8265L40.2102 11.3288C40.453 11.1706 40.5072 10.8881 40.376 10.645C40.1665 10.3308 39.8173 10.3683 39.7196 10.4651C39.6989 10.4722 39.6576 10.4928 38.6417 11.3153C38.8421 10.0299 38.8421 9.98841 38.8421 9.96783C38.8421 9.68506 38.6086 9.48242 38.3481 9.48242C38.0751 9.48242 37.8472 9.70581 37.8472 9.96783C37.8472 9.98841 37.8472 10.0299 38.0476 11.3153C37.0388 10.4928 36.9973 10.4722 36.9835 10.4651C36.6985 10.3238 36.4633 10.42 36.3133 10.645C36.1982 10.875 36.2261 11.1801 36.4929 11.3359L37.7574 11.8265L36.486 12.3241C36.2176 12.4582 36.2022 12.7919 36.3202 12.9941Z" fill="#008F5F"/>
</g>
<defs>
<clipPath id="clip0_9_37914">
<rect width="44" height="44" fill="white" transform="translate(0 0.898438)"/>
</clipPath>
</defs>
</svg>
